<svg width="48" height="48" viewBox="0 0 48 48" fill="none" xmlns="http://www.w3.org/2000/svg">
<circle cx="24" cy="24" r="24" fill="#2F2C2C"/>
<path d="M23.9292 25.7828L32.0074 29.0253L30.0301 32.4502L23.1874 27.0791C22.8707 27.4857 22.4957 27.8446 22.075 28.1434L24.6968 32.0344L23.2697 32.8583L21.2106 28.6416C20.7613 28.8465 20.2782 28.9901 19.772 29.0619L21.0094 37.724H17.0547L18.2919 29.0638C17.7696 28.9911 17.2716 28.8419 16.8099 28.6278L14.7484 32.8494L13.3213 32.0255L15.9496 28.1249C15.543 27.8324 15.1797 27.4835 14.8712 27.0895L7.97735 32.5009L6 29.076L14.1328 25.8116C13.9466 25.3498 13.8239 24.8556 13.7756 24.3397L9.14339 24.6614V23.0136L13.7763 23.3353C13.8253 22.8199 13.9487 22.3261 14.1353 21.8647L6.05972 18.6233L8.03706 15.1984L14.886 20.5745C15.1943 20.1844 15.5565 19.839 15.9614 19.5495L13.3605 15.6896L14.7876 14.8657L16.8291 19.0462C17.2817 18.8386 17.7688 18.6931 18.2794 18.6208L17.0479 10H21.0026L19.771 18.6208C20.2757 18.6923 20.7573 18.8352 21.2055 19.0389L23.2552 14.8415L24.6822 15.6654L22.0728 19.5379C22.4847 19.8301 22.8527 20.1798 23.1653 20.5755L30.0262 15.19L32.0035 18.6148L23.914 21.8619C24.0006 22.0757 24.0737 22.2965 24.1321 22.5232H42.0572L42.0943 23.8414L42.0572 25.1596H24.1321C24.0772 25.3729 24.0093 25.581 23.9292 25.7828Z" fill="#CF1F09"/>
</svg>
