<svg xmlns="http://www.w3.org/2000/svg" fill="none">
  <defs>
    <symbol id="menu" viewBox="0 0 70 43">
      <rect id="top" y="0.793091" width="70" height="6.2069" rx="3.10345" fill="currentColor"/>
      <rect id="middle" y="19.4138" width="70" height="6.2069" rx="3.10345" fill="currentColor"/>
      <rect id="bottom" y="35.9655" width="70" height="6.2069" rx="3.10345" fill="currentColor"/>
    </symbol>

    <symbol id="mail" viewBox="0 0 84 67">
      <path d="M72.3194 3H11.6649C6.87942 3 3 6.87942 3 11.6649V54.9896C3 59.7751 6.87942 63.6545 11.6649 63.6545H72.3194C77.1049 63.6545 80.9844 59.7751 80.9844 54.9896V11.6649C80.9844 6.87942 77.1049 3 72.3194 3Z" stroke="currentColor" stroke-width="6" stroke-linecap="round" stroke-linejoin="round" fill="none"/>
      <path d="M3.01562 12.2922L42.0078 38.287L81 12.2922" stroke="currentColor" stroke-width="6" stroke-linecap="round" stroke-linejoin="round" fill="transparent"/>
    </symbol>

    <symbol id="mts" viewBox="0 0 69 86">
      <path d="M34.5 5C22.7 5 5 27.8053 5 48.9827C5 70.16 16.8 81.7 34.5 81.7C52.2 81.7 64 70.16 64 48.9827C64 27.8053 46.3 5 34.5 5Z" stroke="currentColor" stroke-width="8.196" stroke-miterlimit="10" fill="transparent"/>
    </symbol>

    <symbol id="viber" viewBox="0 0 81 86">
      <path d="M38.3626 0.00700404C31.517 0.100171 16.7873 1.23251 8.54768 8.83995C2.43107 14.9675 0.293816 24.0011 0.0448847 35.1883C-0.168485 46.3325 -0.417417 67.2592 19.6038 72.9603V81.632C19.6038 81.632 19.4687 85.1079 21.7446 85.8245C24.554 86.7204 26.1543 84.0364 28.8214 81.1698L33.8 75.5081C47.4913 76.6548 57.982 74.0067 59.1911 73.6125C61.9649 72.7167 77.6156 70.7064 80.176 49.7761C82.8076 28.1649 78.8958 14.5482 71.8546 8.38486L71.819 8.3777C69.6853 6.40686 61.1505 0.136004 42.0539 0.0643376C42.0539 0.0643376 40.6457 -0.0252461 38.3626 0.00700404V0.00700404ZM38.6009 6.08794C40.539 6.07719 41.7303 6.15961 41.7303 6.15961C57.8753 6.19544 65.5957 11.1046 67.4094 12.753C73.3482 17.8736 76.3994 30.1537 74.1661 48.1994C72.0324 65.6861 59.3369 66.797 56.9898 67.5495C55.9941 67.872 46.748 70.1653 35.1123 69.4128C35.1123 69.4128 26.4388 79.9514 23.7361 82.6748C23.3093 83.1406 22.8115 83.2839 22.4914 83.2123C22.0291 83.1048 21.8869 82.5314 21.9224 81.7431L21.9936 67.3416C5.02708 62.6116 6.0228 44.7594 6.20061 35.4427C6.41398 26.126 8.1565 18.4863 13.3129 13.3263C20.2724 6.98378 32.783 6.12377 38.5973 6.08794H38.6009ZM39.8811 15.4046C39.7412 15.4042 39.6025 15.4315 39.4731 15.4852C39.3437 15.5388 39.226 15.6176 39.1269 15.7172C39.0278 15.8167 38.9492 15.935 38.8955 16.0652C38.8419 16.1954 38.8142 16.3351 38.8142 16.4761C38.8142 16.7612 38.9266 17.0346 39.1267 17.2362C39.3268 17.4378 39.5981 17.5511 39.8811 17.5511C42.5249 17.5002 45.1525 17.9776 47.6123 18.9555C50.0721 19.9333 52.3153 21.3925 54.2124 23.2486C58.0887 27.0469 59.977 32.1353 60.0481 38.8003C60.0481 38.9415 60.0757 39.0813 60.1293 39.2117C60.1829 39.3421 60.2615 39.4606 60.3606 39.5604C60.4597 39.6603 60.5773 39.7394 60.7067 39.7935C60.8361 39.8475 60.9749 39.8753 61.115 39.8753V39.843C61.3979 39.843 61.6693 39.7298 61.8693 39.5282C62.0694 39.3266 62.1818 39.0532 62.1818 38.768C62.3137 35.6336 61.8111 32.505 60.7045 29.5726C59.5979 26.6402 57.9105 23.9655 55.7452 21.7113C51.5133 17.5546 46.1719 15.4046 39.8775 15.4046H39.8811ZM25.82 17.8771C25.0637 17.7686 24.2932 17.92 23.633 18.3071H23.5903C22.1322 19.1672 20.788 20.2422 19.5078 21.6755C18.5476 22.8222 18.0106 23.9652 17.8684 25.0761C17.7847 25.7276 17.8455 26.3897 18.0462 27.0147L18.1173 27.0505C19.2134 30.2975 20.6437 33.4201 22.3847 36.3672C24.6415 40.4946 27.4142 44.3133 30.635 47.73L30.7417 47.8733L30.884 47.9808L30.9907 48.0883L31.0973 48.1958C34.5014 51.4495 38.3013 54.2549 42.406 56.545C47.1001 59.125 49.9522 60.3434 51.6591 60.845V60.8809C52.157 61.0242 52.6122 61.0959 53.0745 61.0959C54.5315 60.9887 55.9111 60.3933 56.9934 59.4045C58.3803 58.1504 59.4827 56.76 60.3006 55.2908V55.255C61.1185 53.7142 60.834 52.2414 59.6605 51.2381C57.2954 49.1533 54.7348 47.3051 52.0147 45.7197C50.2011 44.7164 48.3519 45.3256 47.6051 46.3289L46.0048 48.3678C45.1869 49.3712 43.6933 49.2278 43.6933 49.2278L43.6506 49.2637C32.5554 46.397 29.6038 35.0772 29.6038 35.0772C29.6038 35.0772 29.4615 33.5364 30.4928 32.748L32.4843 31.1355C33.4444 30.3472 34.1201 28.4838 33.0888 26.6563C31.5175 23.9141 29.6832 21.3337 27.6123 18.9521C27.1618 18.3892 26.5259 18.0078 25.82 17.8771V17.8771ZM41.7267 21.0663C41.4438 21.0673 41.1728 21.1814 40.9734 21.3837C40.774 21.586 40.6625 21.8598 40.6634 22.1449C40.6644 22.43 40.7777 22.7031 40.9784 22.904C41.1792 23.1049 41.4509 23.2173 41.7338 23.2163C45.2927 23.2786 48.6817 24.7605 51.1577 27.3372C52.2748 28.5789 53.1335 30.0335 53.6832 31.6153C54.2329 33.197 54.4625 34.8737 54.3582 36.5464C54.3592 36.8309 54.472 37.1034 54.672 37.3042C54.8719 37.505 55.1428 37.6178 55.4251 37.6178L55.4607 37.6608C55.6011 37.6608 55.7401 37.6329 55.8698 37.5786C55.9994 37.5244 56.1172 37.4449 56.2163 37.3447C56.3154 37.2445 56.3939 37.1255 56.4473 36.9947C56.5007 36.8639 56.528 36.7237 56.5275 36.5822C56.6342 32.318 55.3184 28.7347 52.7224 25.868C50.1264 23.0013 46.4991 21.3888 41.8761 21.0663C41.8264 21.0628 41.7765 21.0628 41.7267 21.0663V21.0663ZM43.4693 26.8678C43.3266 26.8635 43.1845 26.8876 43.0511 26.9387C42.9177 26.9898 42.7955 27.0669 42.6917 27.1656C42.5878 27.2642 42.5043 27.3826 42.4458 27.5137C42.3873 27.6449 42.355 27.7865 42.3508 27.9302C42.3466 28.074 42.3706 28.2172 42.4213 28.3516C42.472 28.486 42.5485 28.6091 42.6464 28.7137C42.7443 28.8184 42.8617 28.9026 42.9919 28.9615C43.1221 29.0204 43.2626 29.0529 43.4052 29.0572C46.9259 29.2363 48.6328 31.028 48.8462 34.7189C48.8554 34.9977 48.9719 35.262 49.171 35.4559C49.37 35.6499 49.6361 35.7582 49.913 35.758H49.9486C50.0919 35.7535 50.2328 35.72 50.3629 35.6594C50.493 35.5988 50.6097 35.5125 50.706 35.4054C50.8022 35.2984 50.8761 35.1729 50.9232 35.0365C50.9702 34.9001 50.9895 34.7555 50.9799 34.6114C50.731 29.8097 48.135 27.1186 43.5119 26.8678C43.4977 26.8675 43.4835 26.8675 43.4693 26.8678V26.8678Z" fill="currentColor"/>
    </symbol>

    <symbol id="copy" viewBox="0 0 30 30">
      <rect fill="none"/>
      <path d="M25 11.25H13.75C12.3693 11.25 11.25 12.3693 11.25 13.75V25C11.25 26.3807 12.3693 27.5 13.75 27.5H25C26.3807 27.5 27.5 26.3807 27.5 25V13.75C27.5 12.3693 26.3807 11.25 25 11.25Z" stroke="currentColor" stroke-width="3" stroke-linecap="round" stroke-linejoin="round" fill="transparent"/>
      <path d="M6.25 18.75H5C4.33696 18.75 3.70107 18.4866 3.23223 18.0178C2.76339 17.5489 2.5 16.913 2.5 16.25V5C2.5 4.33696 2.76339 3.70107 3.23223 3.23223C3.70107 2.76339 4.33696 2.5 5 2.5H16.25C16.913 2.5 17.5489 2.76339 18.0178 3.23223C18.4866 3.70107 18.75 4.33696 18.75 5V6.25" stroke="currentColor" stroke-width="3" stroke-linecap="round" stroke-linejoin="round"
        fill="transparent"/>
    </symbol>

    <symbol id="cancel" viewBox="0 0 45 45">
      <path d="M2.55713 2.44286L42.5431 42.4289M3.99301 40.993L41.1071 3.8789" stroke="currentColor" stroke-width="4" stroke-linecap="round" stroke-linejoin="round"/>
    </symbol>

    <symbol id="arrow" viewBox="0 0 41 22" fill="transparent">
      <path d="M3 19L20.5 3L38 19" stroke="currentColor" stroke-width="5" stroke-linecap="round" stroke-linejoin="round"/>
    </symbol>

    <symbol id="left_arrow" viewBox="0 0 35 71">
      <path d="M32 68.4326L3 35.9256L32 3.4186" stroke="currentColor" stroke-width="5" stroke-linecap="round" stroke-linejoin="round" fill="transparent"/>
    </symbol>

    <symbol id="right_arrow" viewBox="0 0 35 71">
      <path d="M3 3.41861L32 35.9256L3 68.4326" stroke="currentColor" stroke-width="5" stroke-linecap="round" stroke-linejoin="round" fill="transparent"/>
    </symbol>

    <symbol id="phone" viewBox="0 0 46 46" fill="transparent">
      <path d="M28.0148 10.0275C29.9788 10.4099 31.7837 11.3686 33.1986 12.7808C34.6135 14.193 35.574 15.9944 35.9571 17.9546M28.0148 2C32.0951 2.45242 35.9 4.27614 38.8048 7.17172C41.7096 10.0673 43.5416 13.8626 44 17.9345M41.9893 33.9494V39.97C41.9916 40.5289 41.8769 41.0821 41.6525 41.5942C41.4282 42.1063 41.0991 42.566 40.6865 42.9439C40.2739 43.3217 39.7867 43.6094 39.2562 43.7885C38.7257 43.9675 38.1637 44.034 37.6059 43.9837C31.4186 43.3127 25.4753 41.2025 20.2535 37.8226C15.3953 34.7414 11.2763 30.6303 8.18921 25.7814C4.79106 20.5459 2.67632 14.5851 2.01632 8.38184C1.96607 7.82688 2.03215 7.26755 2.21035 6.73947C2.38856 6.21139 2.67497 5.72613 3.05137 5.31459C3.42776 4.90304 3.88589 4.57423 4.39658 4.34908C4.90728 4.12394 5.45935 4.00739 6.01764 4.00687H12.0498C13.0256 3.99728 13.9716 4.34217 14.7115 4.97726C15.4514 5.61234 15.9346 6.49428 16.0712 7.45869C16.3258 9.38541 16.798 11.2772 17.4787 13.098C17.7492 13.8163 17.8078 14.5969 17.6474 15.3474C17.487 16.0979 17.1145 16.7868 16.5739 17.3325L14.0203 19.8812C16.8826 24.9055 21.0506 29.0655 26.0846 31.9224L28.6382 29.3737C29.1848 28.8341 29.8751 28.4623 30.627 28.3022C31.3789 28.1422 32.1611 28.2006 32.8808 28.4706C34.705 29.15 36.6004 29.6213 38.5309 29.8754C39.5076 30.0129 40.3996 30.504 41.0373 31.2551C41.6749 32.0063 42.0138 32.9651 41.9893 33.9494Z" stroke="currentColor" stroke-width="4" stroke-linecap="round" stroke-linejoin="round"/>
    </symbol>

    <symbol id="tag" viewBox="0 0 46 56" fill="none">
      <path d="M44 23C44 39.3333 23 53.3333 23 53.3333C23 53.3333 2 39.3333 2 23C2 17.4305 4.21249 12.089 8.15076 8.15076C12.089 4.21249 17.4305 2 23 2C28.5695 2 33.911 4.21249 37.8492 8.15076C41.7875 12.089 44 17.4305 44 23Z" stroke="currentColor" stroke-width="4" stroke-linecap="round" stroke-linejoin="round"/>
      <path d="M23 30C26.866 30 30 26.866 30 23C30 19.134 26.866 16 23 16C19.134 16 16 19.134 16 23C16 26.866 19.134 30 23 30Z" stroke="currentColor" stroke-width="4" stroke-linecap="round" stroke-linejoin="round"/>
    </symbol>

    <symbol id="instagram" fill="none" viewBox="0 0 48 48">
      <path d="M33.7005 0H14.2995C6.4147 0 0 6.4147 0 14.2995V33.7005C0 41.5853 6.4147 48 14.2995 48H33.7005C41.5853 48 48 41.5853 48 33.7005V14.2995C47.9999 6.4147 41.5852 0 33.7005 0ZM43.1712 33.7005C43.1712 38.931 38.931 43.1712 33.7005 43.1712H14.2995C9.069 43.1712 4.8288 38.931 4.8288 33.7005V14.2995C4.8288 9.06891 9.069 4.8288 14.2995 4.8288H33.7005C38.931 4.8288 43.1712 9.06891 43.1712 14.2995V33.7005Z" fill="currentColor"/>
      <path d="M24 11.5854C17.1546 11.5854 11.5855 17.1546 11.5855 23.9999C11.5855 30.8452 17.1546 36.4144 24 36.4144C30.8454 36.4144 36.4145 30.8452 36.4145 23.9999C36.4145 17.1545 30.8454 11.5854 24 11.5854ZM24 31.5857C19.8105 31.5857 16.4143 28.1895 16.4143 24C16.4143 19.8105 19.8106 16.4142 24 16.4142C28.1895 16.4142 31.5857 19.8105 31.5857 24C31.5857 28.1894 28.1894 31.5857 24 31.5857Z" fill="currentColor"/>
      <path d="M36.4386 14.6534C38.0815 14.6534 39.4133 13.3215 39.4133 11.6786C39.4133 10.0357 38.0815 8.70386 36.4386 8.70386C34.7957 8.70386 33.4638 10.0357 33.4638 11.6786C33.4638 13.3215 34.7957 14.6534 36.4386 14.6534Z" fill="currentColor"/>
    </symbol>

    <symbol id="whatsapp" fill="none" viewBox="0 0 77 77">
      <path d="M65.4672 11.1891C58.2656 3.97031 48.675 0 38.4828 0C17.4453 0 0.326562 17.1187 0.326562 38.1562C0.326562 44.8766 2.07969 51.4422 5.41406 57.2344L0 77L20.2297 71.6891C25.7984 74.7313 32.0719 76.3297 38.4656 76.3297H38.4828C59.5031 76.3297 77 59.2109 77 38.1734C77 27.9813 72.6687 18.4078 65.4672 11.1891ZM38.4828 69.9016C32.7766 69.9016 27.1906 68.3719 22.3266 65.4844L21.175 64.7969L9.17813 67.9422L12.375 56.2375L11.6187 55.0344C8.43906 49.9813 6.77188 44.1547 6.77188 38.1562C6.77188 20.6766 21.0031 6.44531 38.5 6.44531C46.9734 6.44531 54.9312 9.74531 60.9125 15.7437C66.8937 21.7422 70.5719 29.7 70.5547 38.1734C70.5547 55.6703 55.9625 69.9016 38.4828 69.9016ZM55.8766 46.1484C54.9313 45.6672 50.2391 43.3641 49.3625 43.0547C48.4859 42.7281 47.85 42.5734 47.2141 43.5359C46.5781 44.4984 44.7563 46.6297 44.1891 47.2828C43.6391 47.9188 43.0719 48.0047 42.1266 47.5234C36.5234 44.7219 32.8453 42.5219 29.15 36.1797C28.1703 34.4953 30.1297 34.6156 31.9516 30.9719C32.2609 30.3359 32.1062 29.7859 31.8656 29.3047C31.625 28.8234 29.7172 24.1313 28.9266 22.2234C28.1531 20.3672 27.3625 20.625 26.7781 20.5906C26.2281 20.5563 25.5922 20.5563 24.9562 20.5563C24.3203 20.5563 23.2891 20.7969 22.4125 21.7422C21.5359 22.7047 19.0781 25.0078 19.0781 29.7C19.0781 34.3922 22.4984 38.9297 22.9625 39.5656C23.4438 40.2016 29.6828 49.8266 39.2562 53.9688C45.3062 56.5812 47.6781 56.8047 50.7031 56.3578C52.5422 56.0828 56.3406 54.0547 57.1312 51.8203C57.9219 49.5859 57.9219 47.6781 57.6813 47.2828C57.4578 46.8531 56.8219 46.6125 55.8766 46.1484Z" fill="currentColor"/>
    </symbol>

    <symbol id="telegram" pseudo="telegram" viewBox="0 0 77 77">
        <path d="M38.5 69.3C46.6687 69.3 54.5028 66.055 60.2789 60.2789C66.055 54.5028 69.3 46.6687 69.3 38.5C69.3 30.3313 66.055 22.4972 60.2789 16.7211C54.5028 10.945 46.6687 7.7 38.5 7.7C30.3313 7.7 22.4972 10.945 16.7211 16.7211C10.945 22.4972 7.7 30.3313 7.7 38.5C7.7 46.6687 10.945 54.5028 16.7211 60.2789C22.4972 66.055 30.3313 69.3 38.5 69.3ZM38.5 77C17.2365 77 0 59.7635 0 38.5C0 17.2365 17.2365 0 38.5 0C59.7635 0 77 17.2365 77 38.5C77 59.7635 59.7635 77 38.5 77ZM26.5265 43.0045L16.9092 40.0053C14.8302 39.3701 14.8186 37.9379 17.375 36.9099L54.8471 22.4339C57.0223 21.5484 58.2543 22.6688 57.5498 25.4754L51.1704 55.5824C50.7238 57.7269 49.434 58.239 47.6437 57.2495L37.8224 49.9807L33.2448 54.4005C32.7751 54.8548 32.3939 55.2437 31.6701 55.3399C30.9501 55.44 30.3573 55.2244 29.9222 54.0309L26.5727 42.9775L26.5265 43.0045Z" fill="currentColor"/>
    </symbol>

    <symbol id="clock" fill="none" viewBox="0 0 40 40">
        <path d="M20 0C8.95161 0 0 8.95161 0 20C0 31.0484 8.95161 40 20 40C31.0484 40 40 31.0484 40 20C40 8.95161 31.0484 0 20 0ZM20 36.129C11.0887 36.129 3.87097 28.9113 3.87097 20C3.87097 11.0887 11.0887 3.87097 20 3.87097C28.9113 3.87097 36.129 11.0887 36.129 20C36.129 28.9113 28.9113 36.129 20 36.129ZM24.9839 27.7097L18.1371 22.7339C17.8871 22.5484 17.7419 22.2581 17.7419 21.9516V8.70968C17.7419 8.17742 18.1774 7.74194 18.7097 7.74194H21.2903C21.8226 7.74194 22.2581 8.17742 22.2581 8.70968V20.1371L27.6452 24.0564C28.0806 24.371 28.1694 24.9758 27.8548 25.4113L26.3387 27.5C26.0242 27.9274 25.4194 28.0242 24.9839 27.7097Z" fill="currentColor"/>
    </symbol>

  </defs>
</svg>
